HIERARCHY
ROOT Hips
{
	OFFSET 0.000000 0.000000 0.000000
	CHANNELS 6 Xposition Yposition Zposition Xrotation Yrotation Zrotation
	JOINT LeftUpLeg_virtual
	{
		OFFSET 0.000000 0.000000 0.000000
		CHANNELS 3 Xrotation Yrotation Zrotation
		JOINT LeftUpLeg
		{
			OFFSET 15.427100 -6.655098 0.678600
			CHANNELS 3 Xrotation Yrotation Zrotation
			JOINT LeftLeg
			{
				OFFSET 4.081073 -39.591068 13.024000
				CHANNELS 3 Xrotation Yrotation Zrotation
				JOINT LeftFoot
				{
					OFFSET -4.081074 -37.707932 -15.979700
					CHANNELS 3 Xrotation Yrotation Zrotation
					JOINT LeftToeBase
					{
						OFFSET 5.346399 -15.068900 20.645000
						CHANNELS 3 Xrotation Yrotation Zrotation
						JOINT LeftToe_End
						{
							OFFSET 2.754700 0.931300 11.300900
							CHANNELS 3 Xrotation Yrotation Zrotation
							End Site
							{
								OFFSET 0 0 0
							}
						}
					}
				}
			}
		}
	}
	JOINT RightUpLeg_virtual
	{
		OFFSET 0.000000 0.000000 0.000000
		CHANNELS 3 Xrotation Yrotation Zrotation
		JOINT RightUpLeg
		{
			OFFSET -15.569500 -6.655098 0.678600
			CHANNELS 3 Xrotation Yrotation Zrotation
			JOINT RightLeg
			{
				OFFSET -4.081825 -39.591045 13.023800
				CHANNELS 3 Xrotation Yrotation Zrotation
				JOINT RightFoot
				{
					OFFSET 4.081824 -37.707954 -15.979600
					CHANNELS 3 Xrotation Yrotation Zrotation
					JOINT RightToeBase
					{
						OFFSET -5.346400 -15.068900 20.645000
						CHANNELS 3 Xrotation Yrotation Zrotation
						JOINT RightToe_End
						{
							OFFSET -2.754700 0.931300 11.300900
							CHANNELS 3 Xrotation Yrotation Zrotation
							End Site
							{
								OFFSET 0 0 0
							}
						}
					}
				}
			}
		}
	}
	JOINT Spine_virtual
	{
		OFFSET 0.000000 0.000000 0.000000
		CHANNELS 3 Xrotation Yrotation Zrotation
		JOINT Spine
		{
			OFFSET -0.279200 12.230698 -2.892100
			CHANNELS 3 Xrotation Yrotation Zrotation
			JOINT Spine1
			{
				OFFSET -0.232667 10.192268 -1.242267
				CHANNELS 3 Xrotation Yrotation Zrotation
				JOINT Spine1_split
				{
					OFFSET -0.232667 10.192268 -1.242267
					CHANNELS 3 Xrotation Yrotation Zrotation
					JOINT Spine2
					{
						OFFSET -0.232667 10.192268 -1.242267
						CHANNELS 3 Xrotation Yrotation Zrotation
						JOINT Neck_virtual
						{
							OFFSET 0.000000 0.000000 0.000000
							CHANNELS 3 Xrotation Yrotation Zrotation
							JOINT Neck
							{
								OFFSET -0.418800 17.814194 8.416900
								CHANNELS 3 Xrotation Yrotation Zrotation
								JOINT Head
								{
									OFFSET 0.000000 7.031097 3.806800
									CHANNELS 3 Xrotation Yrotation Zrotation
									JOINT HeadTop_End
									{
										OFFSET 0.000000 24.646606 12.978600
										CHANNELS 3 Xrotation Yrotation Zrotation
										End Site
										{
											OFFSET 0 0 0
										}
									}
								}
							}
						}
						JOINT LeftShoulder_virtual
						{
							OFFSET 0.000000 0.000000 0.000000
							CHANNELS 3 Xrotation Yrotation Zrotation
							JOINT LeftShoulder
							{
								OFFSET 8.476499 7.247704 -3.868750
								CHANNELS 3 Xrotation Yrotation Zrotation
								JOINT LeftShoulder_split
								{
									OFFSET 8.476499 7.247704 -3.868750
									CHANNELS 3 Xrotation Yrotation Zrotation
									JOINT LeftArm
									{
										OFFSET 9.308998 -2.777710 0.208600
										CHANNELS 3 Xrotation Yrotation Zrotation
										JOINT LeftForeArm
										{
											OFFSET 29.972298 0.000000 0.000000
											CHANNELS 3 Xrotation Yrotation Zrotation
											JOINT LeftHand
											{
												OFFSET 26.026505 0.000000 0.000000
												CHANNELS 3 Xrotation Yrotation Zrotation
												End Site
												{
													OFFSET 0 0 0
												}
											}
										}
									}
								}
							}
						}
						JOINT RightShoulder_virtual
						{
							OFFSET 0.000000 0.000000 0.000000
							CHANNELS 3 Xrotation Yrotation Zrotation
							JOINT RightShoulder
							{
								OFFSET -7.570500 7.247704 -3.868750
								CHANNELS 3 Xrotation Yrotation Zrotation
								JOINT RightShoulder_split
								{
									OFFSET -7.570500 7.247704 -3.868750
									CHANNELS 3 Xrotation Yrotation Zrotation
									JOINT RightArm
									{
										OFFSET -9.308998 -2.777710 0.208500
										CHANNELS 3 Xrotation Yrotation Zrotation
										JOINT RightForeArm
										{
											OFFSET -29.972300 0.000000 0.000000
											CHANNELS 3 Xrotation Yrotation Zrotation
											JOINT RightHand
											{
												OFFSET -26.026505 0.000000 0.000000
												CHANNELS 3 Xrotation Yrotation Zrotation
												End Site
												{
													OFFSET 0 0 0
												}
											}
										}
									}
								}
							}
						}
					}
				}
			}
		}
	}
}
MOTION
Frames: 10
Frame Time: 0.03333333
7.220665 83.498444 -1.854595 0.000000 0.000000 0.000000 170.193479 -75.649024 -179.710610 -8.895981 18.691002 13.543292 39.640915 12.991617 -6.881481 -20.130456 18.061421 -21.208106 -0.191637 -0.415852 -0.506326 0.000000 0.000000 0.000000 166.027023 -77.375784 176.880398 -31.516842 14.129699 -20.320016 36.285906 -0.593991 -10.873575 -15.834212 17.847551 17.403614 2.231388 2.040678 1.831294 0.000000 0.000000 0.000000 168.487284 -77.917746 179.049325 25.911521 -12.054865 7.948113 22.676727 -2.586627 0.783085 0.675561 -1.094703 1.433225 0.000000 0.000000 0.000000 21.998337 -2.834667 0.698214 12.248807 -3.030591 -5.636658 -26.488546 17.523883 -9.008012 0.000000 0.000000 0.000000 23.848835 -3.131655 1.062427 -0.736042 -10.710830 10.274084 -2.762450 -2.468167 1.248369 16.314040 18.118532 -75.777390 11.111740 -81.575640 9.372087 0.000000 0.000000 0.000000 22.462469 -2.790832 1.410935 6.972522 16.475668 13.175688 6.255990 4.029149 5.006334 -61.222845 52.714888 51.610057 178.136798 66.419533 -176.973494 0.000000 0.000000 0.000000 
7.171312 83.034752 -2.434261 0.000000 0.000000 0.000000 175.795163 -78.423044 -173.312171 -9.121866 19.539634 14.654681 40.610532 11.124992 -6.546797 -21.771370 15.347263 -21.306843 -1.467149 -0.376553 -0.257778 0.000000 0.000000 0.000000 171.862668 -81.094044 -176.645631 -31.565193 11.921279 -22.266926 39.566681 -1.351899 -10.800935 -15.917746 15.243922 16.237284 2.986588 2.119011 1.665178 0.000000 0.000000 0.000000 175.063158 -80.303531 -174.094405 24.795207 -12.839433 7.492022 22.461036 -2.860201 1.028106 1.429926 -0.662043 1.473989 0.000000 0.000000 0.000000 21.736082 -3.154337 0.889596 11.325895 -2.806386 -7.303996 -22.993384 19.263463 -10.641390 0.000000 0.000000 0.000000 23.551730 -3.370176 1.347025 -0.686274 -9.549402 9.390391 -2.676686 -2.892882 1.122709 8.343494 26.740452 -71.023162 -1.440830 -86.135270 -2.216236 0.000000 0.000000 0.000000 22.151664 -3.076054 1.576321 7.295384 17.751786 13.379153 5.149430 3.903879 4.904157 -55.841738 46.953982 45.587729 177.781778 65.888929 -176.754422 0.000000 0.000000 0.000000 
7.034480 82.611496 -3.228539 0.000000 0.000000 0.000000 -171.866452 -82.250224 -160.361995 -9.796567 19.717115 16.172057 41.236243 8.876129 -5.682597 -22.620154 11.877995 -22.102668 -1.988533 -0.302708 -0.130487 0.000000 0.000000 0.000000 -169.858048 -85.572954 -157.929505 -31.398690 9.616970 -24.318398 43.009462 -2.314208 -10.530255 -15.574187 12.266467 15.384352 3.416409 2.157918 1.377690 0.000000 0.000000 0.000000 -173.123289 -83.557188 -162.364525 23.307295 -12.946896 7.277342 21.889238 -3.080171 1.301726 1.721388 0.029559 1.199307 0.000000 0.000000 0.000000 21.462244 -3.450064 1.114039 9.695269 -2.582360 -7.606388 -19.433517 20.618031 -12.131272 0.000000 0.000000 0.000000 23.043200 -3.536163 1.617573 -0.603049 -8.622675 8.877019 -1.962605 -2.445442 0.628915 1.005122 29.827945 -67.070067 -156.765723 -86.729237 -156.623054 0.000000 0.000000 0.000000 21.754470 -3.336465 1.696268 7.608605 19.047159 13.304212 3.750723 3.765321 4.340840 -53.619331 42.165988 43.097254 178.273743 66.063728 -177.425953 0.000000 0.000000 0.000000 
6.886371 82.264854 -3.878292 0.000000 0.000000 0.000000 -131.798540 -85.916157 -120.034591 -10.824540 19.140562 17.687912 41.459737 6.818792 -4.417629 -22.924753 8.165285 -23.013448 -1.709427 -0.190973 -0.214349 0.000000 0.000000 0.000000 -75.012327 -87.088860 -62.855396 -30.683269 7.633198 -25.997904 46.074089 -3.390764 -10.306548 -15.167651 9.109183 14.934649 3.379139 2.139409 1.124950 0.000000 0.000000 0.000000 -137.831168 -86.624953 -127.419173 21.619109 -12.340302 7.105912 20.985884 -3.154104 1.380199 1.260039 0.527292 0.606454 0.000000 0.000000 0.000000 21.093062 -3.648600 1.107202 7.821553 -2.352496 -6.589777 -15.872193 21.544568 -13.043535 0.000000 0.000000 0.000000 22.324125 -3.621463 1.610279 -0.504855 -8.087885 8.529321 -1.377414 -1.861072 -0.174259 -2.861005 27.469457 -65.676572 -171.830074 -78.674026 -171.086267 0.000000 0.000000 0.000000 21.289811 -3.503664 1.595111 7.790126 20.113017 12.967170 2.266554 4.026066 3.874993 -53.151572 38.115915 42.820720 179.338009 67.037105 -178.788370 0.000000 0.000000 0.000000 
6.662227 81.944946 -4.339863 0.000000 0.000000 0.000000 -57.910613 -84.364830 -46.221724 -12.209803 17.875295 19.003314 41.586180 5.276974 -2.933279 -22.755089 4.439985 -23.635130 -1.268050 -0.066431 -0.333429 0.000000 0.000000 0.000000 -35.437105 -82.166670 -23.300239 -29.378870 6.112445 -27.142750 48.251356 -4.526048 -10.353199 -14.902057 5.927785 14.888108 2.925167 2.073550 1.022651 0.000000 0.000000 0.000000 -61.205831 -85.763393 -51.129536 19.938707 -11.058524 6.729264 19.793501 -3.014423 1.146257 0.443332 0.925805 0.063347 0.000000 0.000000 0.000000 20.482653 -3.623566 0.741852 6.104052 -2.020350 -4.613759 -12.344589 22.302694 -13.125055 0.000000 0.000000 0.000000 21.322135 -3.543523 1.209087 -0.434286 -7.846716 8.121777 -1.273706 -1.544134 -1.118153 -2.835168 21.367477 -66.563240 -176.362164 -71.030368 -175.406539 0.000000 0.000000 0.000000 20.689217 -3.452329 1.184753 7.860251 20.363217 12.069056 0.784098 5.377530 3.785458 -53.147836 34.640510 43.323255 -179.287329 68.705911 179.422991 0.000000 0.000000 0.000000 
6.370788 81.483719 -4.443100 0.000000 0.000000 0.000000 -33.513713 -79.017673 -22.166653 -14.057433 16.142669 19.941055 42.052460 4.316715 -1.428704 -22.303071 0.913080 -23.645224 -1.367209 0.010648 -0.300608 0.000000 0.000000 0.000000 -25.661528 -76.454501 -13.722508 -27.683424 4.976414 -27.950562 49.533652 -5.606461 -10.660666 -14.992048 3.000777 15.153919 2.553833 1.977324 1.109763 0.000000 0.000000 0.000000 -35.097661 -81.385980 -25.253899 18.342181 -9.134202 6.042171 18.286155 -2.592900 0.654338 -0.323381 0.573003 0.028636 0.000000 0.000000 0.000000 19.375811 -3.288239 0.106624 4.773468 -1.535293 -2.325134 -8.911983 23.042767 -12.338628 0.000000 0.000000 0.000000 19.892559 -3.233559 0.453774 -0.424553 -7.524265 7.359873 -1.754261 -1.412974 -2.126619 -0.598341 13.252219 -67.758127 -179.047426 -65.575116 -178.114272 0.000000 0.000000 0.000000 19.743912 -3.110262 0.530267 7.739897 19.717935 10.722587 -0.291082 7.224855 4.095936 -53.464306 31.717302 44.213368 -177.854028 70.602231 177.488790 0.000000 0.000000 0.000000 
6.070995 80.874634 -4.234467 0.000000 0.000000 0.000000 -23.767967 -73.156455 -12.995941 -16.530139 14.162495 20.371309 43.293335 3.853566 -0.106683 -21.780290 -2.189955 -22.692807 -1.948432 0.012192 -0.170627 0.000000 0.000000 0.000000 -20.558916 -70.749818 -8.969072 -25.914511 3.916734 -28.931568 50.292165 -6.418894 -11.017181 -15.397027 0.580765 15.697948 2.594638 1.898185 1.342953 0.000000 0.000000 0.000000 -25.540237 -76.301812 -15.880127 16.866321 -6.710120 5.012814 16.528385 -1.959420 0.126117 -0.566410 0.109129 0.523269 0.000000 0.000000 0.000000 17.698702 -2.635713 -0.598914 3.822873 -0.867054 -0.257877 -5.982747 23.718424 -10.766166 0.000000 0.000000 0.000000 18.144983 -2.678654 -0.377260 -0.481567 -6.961367 5.991188 -2.736398 -1.439158 -3.358128 2.122794 5.104156 -67.857151 179.226377 -62.423448 -179.831532 0.000000 0.000000 0.000000 18.417409 -2.417222 -0.113904 7.332999 18.290155 9.058659 -0.337029 9.404458 4.613072 -53.991392 29.267152 45.336661 -176.723700 72.138006 175.856361 0.000000 0.000000 0.000000 
5.708938 80.182144 -4.015942 0.000000 0.000000 0.000000 -18.082846 -67.421111 -8.089825 -19.618395 12.021653 20.360536 45.287323 3.637574 0.894069 -21.029949 -4.755487 -21.091008 -2.722944 -0.015275 -0.039377 0.000000 0.000000 0.000000 -17.108565 -65.296404 -6.041425 -24.374923 2.677158 -30.271211 50.759859 -6.898542 -11.255118 -15.912696 -1.254533 16.656907 3.009740 1.835167 1.599191 0.000000 0.000000 0.000000 -19.682119 -71.017616 -10.333979 15.466863 -3.900672 3.759991 14.601249 -1.159545 -0.265782 -0.435327 -0.382054 1.263238 0.000000 0.000000 0.000000 15.447438 -1.692770 -1.120347 3.174837 -0.178017 1.359598 -3.669326 24.057128 -8.764109 0.000000 0.000000 0.000000 16.180593 -1.865099 -1.045020 -0.584037 -6.089112 4.011554 -4.138398 -1.667583 -4.530200 3.286117 -1.145342 -66.682741 178.207067 -61.393879 179.553324 0.000000 0.000000 0.000000 16.714299 -1.349728 -0.592248 6.684437 16.569009 7.353964 0.596318 10.926915 5.001530 -54.707763 27.525251 46.922143 -175.854135 72.896403 174.522193 0.000000 0.000000 0.000000 
5.286011 79.473625 -3.744194 0.000000 0.000000 0.000000 -14.124333 -62.246874 -5.085175 -23.084520 9.798890 20.076754 47.734095 3.451804 1.445937 -20.087315 -6.618129 -19.416723 -3.464393 -0.025087 -0.005620 0.000000 0.000000 0.000000 -14.444277 -60.318630 -4.107380 -23.132845 1.098919 -31.941953 51.118925 -7.040809 -11.272141 -16.481696 -2.546845 18.173586 2.969404 1.739148 1.764767 0.000000 0.000000 0.000000 -14.929772 -65.929951 -6.211488 14.026425 -0.880071 2.453401 12.501784 -0.276046 -0.478261 0.356129 -1.152720 1.965045 0.000000 0.000000 0.000000 12.705366 -0.585538 -1.359660 2.606512 0.421272 2.374795 -2.022804 23.688392 -6.706546 0.000000 0.000000 0.000000 14.054877 -0.898259 -1.397004 -0.649282 -4.985073 1.477689 -5.746513 -2.030025 -5.848208 1.377772 -4.984264 -64.543956 178.006341 -61.584640 -179.830671 0.000000 0.000000 0.000000 14.678121 -0.085971 -0.819160 5.862102 14.902440 5.992298 2.099092 11.230803 4.526502 -55.637768 26.427380 49.410210 -175.478065 72.732997 173.709018 0.000000 0.000000 0.000000 
4.742968 78.835419 -3.355263 0.000000 0.000000 0.000000 -11.268788 -57.939388 -3.232085 -26.457701 7.672089 19.720964 50.196320 3.253992 1.610326 -19.016399 -7.803464 -18.056582 -3.893865 -0.001888 -0.107224 0.000000 0.000000 0.000000 -12.192813 -56.066728 -2.783959 -22.171137 -0.790217 -33.640058 51.612205 -6.906170 -11.100423 -17.047187 -3.454714 20.128180 1.843169 1.574071 1.807976 0.000000 0.000000 0.000000 -11.040103 -61.498880 -3.321230 12.461226 2.121434 1.271658 10.287884 0.604585 -0.598827 1.296230 -1.795670 2.562041 0.000000 0.000000 0.000000 9.759837 0.536840 -1.377411 2.020580 0.971115 2.808563 -0.772256 23.099970 -5.029590 0.000000 0.000000 0.000000 11.830940 0.107191 -1.467288 -0.630792 -3.749315 -1.200070 -6.644575 -2.095758 -7.405963 -4.294077 -6.651246 -62.078524 178.616810 -61.885913 -178.188584 0.000000 0.000000 0.000000 12.416130 1.142445 -0.900724 5.050636 13.305261 4.970872 3.806245 10.721525 3.526585 -56.385558 25.895240 52.889474 -175.437630 71.828455 173.309602 0.000000 0.000000 0.000000 
